<svg xmlns="http://www.w3.org/2000/svg" version="1.1" xmlns:xlink="http://www.w3.org/1999/xlink" xmlns:svgjs="http://svgjs.dev/svgjs" width="1500" height="1500" viewBox="0 0 1500 1500"><rect width="1500" height="1500" fill="#ffffff"></rect><g transform="matrix(0.6666666666666666,0,0,0.6666666666666666,249.39393939393938,438.5856950067477)"><svg viewBox="0 0 396 247" data-background-color="#ffffff" preserveAspectRatio="xMidYMid meet" height="935" width="1500" xmlns="http://www.w3.org/2000/svg" xmlns:xlink="http://www.w3.org/1999/xlink"><g id="tight-bounds" transform="matrix(1,0,0,1,0.2400000000000091,-0.09999999999999432)"><svg viewBox="0 0 395.52 247.2" height="247.2" width="395.52"><g><svg></svg></g><g><svg viewBox="0 0 395.52 247.2" height="247.2" width="395.52"><g transform="matrix(1,0,0,1,75.54432,59.76225649484536)"><svg viewBox="0 0 244.43135999999998 127.67548701030927" height="127.67548701030927" width="244.43135999999998"><g><svg viewBox="0 0 244.43135999999998 127.67548701030927" height="127.67548701030927" width="244.43135999999998"><g><svg viewBox="0 0 244.43135999999998 127.67548701030927" height="127.67548701030927" width="244.43135999999998"><g><svg viewBox="0 0 244.43135999999998 127.67548701030927" height="127.67548701030927" width="244.43135999999998"><g id="textblocktransform"><svg viewBox="0 0 244.43135999999998 127.67548701030927" height="127.67548701030927" width="244.43135999999998" id="textblock"><g><svg viewBox="0 0 244.43135999999998 127.67548701030927" height="127.67548701030927" width="244.43135999999998"><g transform="matrix(1,0,0,1,0,0)"><svg width="244.43135999999998" viewBox="2.5 -36.05 72.75 38" height="127.67548701030927" data-palette-color="#a437db"><path d="M22.75-35.6Q24-35.1 24-34.2L24-34.2Q24-33.3 22.75-31.9L22.75-31.9Q22.2-31.95 21.15-31.95L21.15-31.95Q18.85-31.95 16.75-31.33 14.65-30.7 12.4-29.4L12.4-29.4Q11.35-28.75 10.6-27.75L10.6-27.75Q10.05-27.15 10.05-26.35L10.05-26.35Q10.05-25 11.55-23.75L11.55-23.75Q13-22.25 16.3-18.3L16.3-18.3 17.45-17.1Q19.9-14.45 21.33-12.6 22.75-10.75 23.75-8.35L23.75-8.35Q24.15-7.3 24.15-6.45L24.15-6.45Q24.15-4.3 22.5-2.5L22.5-2.5Q20.6-0.4 18.1 0.58 15.6 1.55 12.45 1.8L12.45 1.8Q12.05 1.85 11.5 1.9 10.95 1.95 10.25 1.95L10.25 1.95Q9.8 1.95 8.9 1.85L8.9 1.85Q7.8 1.9 6.6 1.48 5.4 1.05 4.4 0.25L4.4 0.25Q2.5-1.35 2.5-3.3L2.5-3.3Q2.5-4.95 3.9-6.65L3.9-6.65Q4.6-6.55 4.73-6.23 4.85-5.9 4.78-5.5 4.7-5.1 4.7-4.85L4.7-4.85Q4.7-4.7 4.8-4.4L4.8-4.4Q6.75-3.5 9.45-3.5L9.45-3.5Q12.45-3.5 15.13-4.53 17.8-5.55 18.4-7.05L18.4-7.05Q18.75-8.05 16.7-10.58 14.65-13.1 12.1-15.5L12.1-15.5Q9.7-17.65 7.75-19.75L7.75-19.75Q6.65-20.95 6.03-22.53 5.4-24.1 5.4-25.8L5.4-25.8Q5.4-28.1 6.58-30.15 7.75-32.2 10.1-33.5L10.1-33.5Q14.6-36.05 19.3-36.05L19.3-36.05Q19.95-36.05 21.15-35.95L21.15-35.95Q22.25-35.85 22.75-35.6L22.75-35.6ZM44.4-2.55Q43.95-2.75 43.5-2.75L43.5-2.75Q43.05-2.75 42.72-2.53 42.4-2.3 42-1.85L42-1.85Q41.4-1.25 40.75-0.85L40.75-0.85Q40.15-0.5 38.55-0.2L38.55-0.2Q37.85-0.1 37.4-0.1L37.4-0.1Q35.3-0.1 33.02-1.03 30.75-1.95 29.8-3.25L29.8-3.25Q28.8-4.65 28.85-6.25L28.85-6.25Q28.9-8.65 30.85-11.05L30.85-11.05Q32.75-13.35 34.32-14.3 35.9-15.25 38.65-15.5L38.65-15.5Q39.25-15.5 40.37-15.7 41.5-15.9 41.5-16.25L41.5-16.25Q41.5-16.95 40.87-17.53 40.25-18.1 38.35-18.1L38.35-18.1Q37.65-18.1 36.25-18L36.25-18Q34.85-17.9 34.3-17.9L34.3-17.9Q32.6-17.9 31.85-18.45L31.85-18.45Q31.65-18.55 31.65-19.4L31.65-19.4Q31.65-20.9 32.7-21.3L32.7-21.3Q34.85-22.1 37.15-22.15L37.15-22.15Q40.05-22.15 42.52-20.88 45-19.6 46.15-17.7L46.15-17.7Q47.3-15.8 47.65-12.45L47.65-12.45Q48.05-8.7 48.05-2.9L48.05-2.9Q48.05-1.3 47.6-1.05L47.6-1.05Q47.2-0.8 46.85-0.8L46.85-0.8Q46.4-0.8 46.02-1.07 45.65-1.35 45.2-1.85L45.2-1.85Q44.75-2.4 44.4-2.55L44.4-2.55ZM36.5-3.15Q38.85-3.85 41.1-5.4L41.1-5.4Q41.6-5.75 42-6.3 42.4-6.85 42.5-7L42.5-7Q42.6-7.15 42.67-7.88 42.75-8.6 42.7-9.05L42.7-9.05Q42.65-9.2 42.52-9.85 42.4-10.5 42.15-11L42.15-11Q41.9-11.4 41.35-11.75 40.8-12.1 40.35-12.05L40.35-12.05Q39.4-12 38.3-11.35 37.2-10.7 36.25-9.6L36.25-9.6Q35.3-8.45 34.77-7.28 34.25-6.1 34.25-5.1L34.25-5.1Q34.35-3.75 35-3.3L35-3.3Q35.35-3.05 35.85-3.05L35.85-3.05Q36.25-3.05 36.5-3.15L36.5-3.15ZM60.4-21.2Q60.55-20.7 60.45-19.65L60.45-19.65 59.85-13.75Q60.1-13.95 60.6-15.18 61.1-16.4 61.55-17.18 62-17.95 62.25-18.2L62.25-18.2Q64.6-20.45 67.55-20.9 70.5-21.35 74.05-21.3L74.05-21.3Q74.4-21.3 74.82-21.03 75.25-20.75 75.25-20.58 75.25-20.4 74.95-20.03 74.65-19.65 74.4-19.55L74.4-19.55Q71.4-18.55 69.12-17.25 66.85-15.95 65.2-13.85L65.2-13.85Q61.3-8.9 60.7-3.65L60.7-3.65Q60.55-2.25 59.85-1.78 59.15-1.3 57.9-1.3L57.9-1.3Q56.5-1.3 55.4-2.5 54.3-3.7 54.3-5.15L54.3-5.15Q54.35-10.45 54.35-21.05L54.35-21.05Q54.35-22.5 55-23.08 55.65-23.65 57.35-23.65L57.35-23.65Q58.6-23.65 59.47-22.95 60.35-22.25 60.4-21.2L60.4-21.2Z" opacity="1" transform="matrix(1,0,0,1,0,0)" fill="#000000" class="wordmark-text-0" data-fill-palette-color="primary" id="text-0"></path></svg></g></svg></g></svg></g></svg></g></svg></g></svg></g></svg></g><g><path d="M245.816 0c68.262 0 123.6 55.338 123.6 123.6 0 68.262-55.338 123.6-123.6 123.6-38.264 0-72.466-17.387-95.138-44.692h7.612c21.568 23.908 52.792 38.935 87.526 38.935 65.083 0 117.843-52.76 117.843-117.843 0-65.083-52.76-117.843-117.843-117.843-34.734 0-65.958 15.027-87.526 38.935l-7.612 0c22.672-27.305 56.874-44.692 95.138-44.692z" fill="#000000" stroke="transparent" data-fill-palette-color="tertiary"></path></g></svg></g><defs></defs></svg><rect width="395.52" height="247.2" fill="none" stroke="none" visibility="hidden"></rect></g></svg></g></svg>